Coordinates
version=1
nRows=17
nColumns=40
inDegrees=yes

Units are S.I. units (second, meters, Newtons, ...)
Angles are in degrees.

endheader
time	pelvis_tilt	pelvis_list	pelvis_rotation	pelvis_tx	pelvis_ty	pelvis_tz	hip_flexion_r	hip_adduction_r	hip_rotation_r	knee_angle_r	knee_angle_r_beta	ankle_angle_r	subtalar_angle_r	mtp_angle_r	hip_flexion_l	hip_adduction_l	hip_rotation_l	knee_angle_l	knee_angle_l_beta	ankle_angle_l	subtalar_angle_l	mtp_angle_l	lumbar_extension	lumbar_bending	lumbar_rotation	arm_flex_r	arm_add_r	arm_rot_r	elbow_flex_r	pro_sup_r	wrist_flex_r	wrist_dev_r	arm_flex_l	arm_add_l	arm_rot_l	elbow_flex_l	pro_sup_l	wrist_flex_l	wrist_dev_l
     48.19500000	     -5.64405476	     -6.07611149	      6.67778036	      0.91876690	      0.91747706	      0.49231036	      1.13441522	      2.46905806	    -11.96256924	     16.91883017	     16.91883017	     18.50152053	     -2.43895543	     -1.11424045	     29.76982113	     -5.44325954	      4.08550337	     26.40492760	     26.40492760	      6.80038337	    -11.33833875	      0.92204990	     -7.71098052	      3.36309261	      3.45540721	     56.24520198	    -16.93559138	     -9.47906875	     75.96916653	     45.07497566	      0.00000000	      0.00000000	     -7.13179015	    -10.17677220	     12.33138539	     29.60366633	     44.29268607	      0.00000000	      0.00000000
     48.21371429	     -5.79436480	     -5.86546219	      6.21029880	      0.91895602	      0.91824967	      0.48887521	      1.75210389	      1.78025967	    -11.54160426	     18.53150582	     18.53150582	     18.25865378	     -2.90115332	     -1.43679635	     29.30769275	     -5.20794740	      3.57859312	     26.32858967	     26.32858967	      7.29677082	    -11.41932069	      0.85827714	     -7.63482606	      3.10271816	      3.52658166	     54.75874077	    -16.51454802	     -9.61911523	     75.17294936	     45.10365841	      0.00000000	      0.00000000	     -5.91189058	    -10.61526185	     11.95359574	     29.76189908	     44.38415494	      0.00000000	      0.00000000
     48.23242857	     -5.83160913	     -5.78799284	      5.77337482	      0.91920500	      0.91921333	      0.48553717	      2.24260616	      1.26898454	    -11.14918825	     20.06260417	     20.06260417	     17.84736692	     -3.31211521	     -1.84314751	     28.74530648	     -5.09673572	      3.20645734	     26.23618404	     26.23618404	      7.73716449	    -11.55625540	      0.79982631	     -7.65328663	      3.04156703	      3.47688828	     53.13024070	    -15.88113844	     -9.72576148	     74.39626552	     45.12939665	      0.00000000	      0.00000000	     -4.56504812	    -11.01889936	     11.57919574	     29.85843500	     44.47655066	      0.00000000	      0.00000000
     48.25114286	     -5.87033980	     -5.68602188	      5.33064507	      0.91935907	      0.92017613	      0.48220742	      2.94681498	      0.69745354	    -10.66005839	     21.94387670	     21.94387670	     17.27798059	     -3.84743858	     -2.54254936	     28.15264292	     -4.95267560	      2.83553000	     26.07194724	     26.07194724	      8.05294081	    -11.67755418	      0.75473376	     -7.64968371	      2.96968251	      3.41112947	     51.35782028	    -15.22742417	     -9.88993575	     73.48281136	     45.16139362	      0.00000000	      0.00000000	     -3.10218053	    -11.38200110	     11.16667848	     29.84980293	     44.57871477	      0.00000000	      0.00000000
     48.26985714	     -5.84490991	     -5.59094822	      4.88006415	      0.91957765	      0.92112211	      0.47884934	      3.70990605	      0.11276555	    -10.23557394	     24.03812770	     24.03812770	     16.64710457	     -4.47205179	     -3.45180504	     27.46915053	     -4.81950358	      2.39747022	     25.87038891	     25.87038891	      8.41763589	    -11.87426518	      0.66715075	     -7.70488943	      2.95004113	      3.29473557	     49.32745301	    -14.55150260	     -9.97054037	     72.45238022	     45.19252289	      0.00000000	      0.00000000	     -1.58193561	    -11.74674701	     10.80616918	     29.83205134	     44.67151203	      0.00000000	      0.00000000
     48.28857143	     -5.79129252	     -5.50652513	      4.42493331	      0.91982129	      0.92197753	      0.47555275	      4.46352451	     -0.43131131	     -9.70905915	     25.98646950	     25.98646950	     14.45956201	     -5.91644152	     -8.23630928	     26.78017754	     -4.66981911	      2.06658712	     25.69942695	     25.69942695	      8.58327709	    -12.24492142	      0.38830774	     -7.70028661	      2.94185134	      3.23745352	     47.24688044	    -13.66653924	    -10.80622462	     70.71143092	     45.28860299	      0.00000000	      0.00000000	      0.57912660	    -11.59807969	      9.12990709	     28.13939026	     45.05547580	      0.00000000	      0.00000000
     48.30728571	     -5.69821057	     -5.35116751	      3.93174123	      0.92000595	      0.92280845	      0.47227354	      5.56697985	     -1.14218876	     -9.23932261	     28.78425018	     28.78425018	     13.66866031	     -6.54324245	     -8.97126395	     26.04571327	     -4.48708802	      1.56580995	     25.53516518	     25.53516518	      8.87631512	    -12.36963573	      0.32475715	     -7.83101311	      2.86585786	      3.09080908	     44.83265005	    -13.16814179	    -10.54072076	     69.57754252	     45.30773968	      0.00000000	      0.00000000	      2.04399752	    -12.00409000	      8.93090139	     28.57579572	     45.11605197	      0.00000000	      0.00000000
     48.32600000	     -5.63228009	     -5.25203694	      3.41798824	      0.92012965	      0.92342014	      0.46905746	      6.75806198	     -1.74981623	     -8.65589393	     31.47684434	     31.47684434	     11.46462056	     -8.17081131	    -12.93330455	     25.39347029	     -4.31146448	      1.24887582	     25.43385989	     25.43385989	      9.09542521	    -12.80449061	      0.28622623	     -7.81659234	      2.87547845	      3.04898880	     42.59533210	    -12.71738115	    -10.39851674	     67.02691704	     45.38657957	      0.00000000	      0.00000000	      3.98162557	    -12.13892587	      8.42895949	     27.84568823	     45.27145974	      0.00000000	      0.00000000
     48.34471429	     -5.55562177	     -5.12216083	      2.88629171	      0.92019737	      0.92379984	      0.46585095	      8.26869003	     -2.46736302	     -8.18660378	     34.85234818	     34.85234818	     10.29367680	     -8.95741410	    -13.70017120	     24.80018172	     -4.14104454	      0.76997017	     25.46229939	     25.46229939	      9.42771848	    -12.99516905	      0.20337275	     -7.88684007	      2.88536542	      2.99875704	     39.93192956	    -12.35209620	    -10.15131785	     65.53714349	     45.41668451	      0.00000000	      0.00000000	      5.53824030	    -12.45601937	      8.28274596	     28.36281196	     45.32466659	      0.00000000	      0.00000000
     48.36342857	     -5.42412583	     -5.00774930	      2.34662992	      0.92020047	      0.92411330	      0.46274595	      9.76420369	     -3.08477223	     -7.60626631	     38.13231207	     38.13231207	      8.28413892	    -10.56709423	    -15.82088172	     24.22889034	     -3.95909049	      0.41064669	     25.62385273	     25.62385273	      9.83916840	    -13.37694619	      0.36812383	     -7.95678743	      2.91155670	      3.04790719	     37.53160662	    -12.10626001	     -9.75136617	     62.39302852	     45.49942784	      0.00000000	      0.00000000	      7.47214502	    -12.61865220	      8.20354752	     28.14867209	     45.39065207	      0.00000000	      0.00000000
     48.38214286	     -5.28233055	     -4.86317043	      1.78700860	      0.92010767	      0.92412639	      0.45971252	     11.48659618	     -3.79447636	     -7.14528931	     41.83071136	     41.83071136	      6.85735532	    -11.49847973	    -16.16749293	     23.69899188	     -3.76843029	     -0.04451286	     25.86362047	     25.86362047	     10.26053007	    -13.65310357	      0.28137850	     -8.10207413	      2.93153082	      2.98256212	     34.74428205	    -11.82841575	     -9.45320561	     60.58442459	     45.53694309	      0.00000000	      0.00000000	      9.02463949	    -12.93822152	      8.08806325	     28.69455160	     45.43683663	      0.00000000	      0.00000000
     48.40085714	     -5.14729543	     -4.81575121	      1.22824961	      0.91986843	      0.92399482	      0.45683122	     13.26512215	     -4.26860295	     -6.55717755	     45.44670891	     45.44670891	      5.25267623	    -12.94849444	    -16.04759700	     23.29517232	     -3.65427387	     -0.34898344	     26.28796654	     26.28796654	     10.77670470	    -14.07484899	      0.46900934	     -8.21006591	      3.07789218	      3.30052486	     32.12971713	    -11.99107102	     -8.92934583	     57.18119425	     45.62132011	      0.00000000	      0.00000000	     10.91061585	    -13.04934938	      8.03061661	     29.09404401	     45.48467836	      0.00000000	      0.00000000
     48.41957143	     -4.97597486	     -4.71977302	      0.66184589	      0.91955143	      0.92368148	      0.45409827	     15.09180056	     -4.79447596	     -6.06752442	     49.12117038	     49.12117038	      4.00913782	    -14.07243366	    -14.86440621	     22.89861700	     -3.51337305	     -0.75106421	     26.79747875	     26.79747875	     11.44668738	    -14.36517725	      0.84687527	     -8.34617894	      3.17890926	      3.29655177	     29.84613469	    -11.89983529	     -8.14054890	     53.26089978	     45.71202593	      0.00000000	      0.00000000	     12.65027990	    -13.25549645	      7.95380037	     29.40371638	     45.53434615	      0.00000000	      0.00000000
     48.43828571	     -4.87661600	     -4.58464027	      0.10193114	      0.91906696	      0.92307520	      0.45147975	     17.00968576	     -5.35286391	     -5.63261542	     52.62434815	     52.62434815	      2.80377754	    -15.17584502	    -13.92945014	     22.59694182	     -3.32546296	     -1.14419391	     27.28949620	     27.28949620	     11.97205405	    -14.70387956	      0.85317098	     -8.48342095	      3.28026096	      3.31846914	     27.04185141	    -11.84648760	     -7.71355462	     50.82650030	     45.76452303	      0.00000000	      0.00000000	     14.19091658	    -13.51222723	      7.78806058	     30.13501970	     45.58609455	      0.00000000	      0.00000000
     48.45700000	     -4.71853603	     -4.50537498	     -0.44339573	      0.91857118	      0.92245010	      0.44915145	     18.80652479	     -5.75193993	     -5.17577036	     55.83725265	     55.83725265	      1.92798123	    -16.21725966	    -12.28386333	     22.30683925	     -3.20933329	     -1.48333833	     27.91462432	     27.91462432	     12.55652967	    -15.03529384	      0.92848127	     -8.69502536	      3.39323223	      3.55481209	     24.22739416	    -12.04548998	     -7.19983065	     47.81847574	     45.83403636	      0.00000000	      0.00000000	     15.90391181	    -13.65826383	      7.59447264	     31.01545644	     45.64406681	      0.00000000	      0.00000000
     48.47571429	     -4.44921479	     -4.57293415	     -0.91032378	      0.91807810	      0.92196850	      0.44706473	     20.54050677	     -5.93476070	     -4.82342352	     59.08549720	     59.08549720	      3.58639498	    -15.69887338	     -4.21690071	     21.98281680	     -3.26168615	     -1.80144530	     28.72793688	     28.72793688	     13.81963394	    -14.94829904	      2.30446901	     -8.90874572	      3.71261418	      2.90786169	     23.21140108	    -11.69009553	     -5.35912109	     40.85233058	     45.98375177	      0.00000000	      0.00000000	     17.15749231	    -14.15179360	      6.97075816	     31.65502090	     45.76317164	      0.00000000	      0.00000000
     48.49442857	     -4.32140168	     -4.51742093	     -1.42122455	      0.91749791	      0.92118029	      0.44525217	     22.14440543	     -6.22005815	     -4.43456073	     61.37356571	     61.37356571	      3.00769002	    -16.59042633	     -3.49075797	     21.71635030	     -3.18744268	     -2.12851898	     29.30579409	     29.30579409	     14.38031832	    -15.26700169	      2.17127848	     -9.14212041	      3.82858723	      3.06845199	     20.10625423	    -11.92493966	     -5.08593221	     38.78947298	     46.02641026	      0.00000000	      0.00000000	     18.71091435	    -14.33934673	      6.62061348	     32.83104302	     45.83778963	      0.00000000	      0.00000000
